<svg width="766" height="643" fill="none" xmlns="http://www.w3.org/2000/svg"><g opacity=".03"><path fill-rule="evenodd" clip-rule="evenodd" d="M765.989 259.997v-3.921a135.507 135.507 0 0 0-36.986-93.03l-7.739-8.193a240.503 240.503 0 0 0-32.385-28.623l-21.96-16.136c26.47-58.277 6.232-128.61-49.666-163.296l-63.875-39.626a72.633 72.633 0 0 0-93.2 14.187l-.793.907-.318-.272-3.818 4.6a72.615 72.615 0 0 0-13.821 25.945 72.615 72.615 0 0 0-2.406 29.299 72.631 72.631 0 0 0 29.077 49.696l126.322 92.849a95.325 95.325 0 0 1-103.92 32.396l-4.828-1.518-66.288-22.572A112.863 112.863 0 0 0 383 126.672c0 34.175 19.32 57.745 85.699 80.339l5.416 1.7a149.789 149.789 0 0 0 164.203-52.045l18.312 13.462a185.884 185.884 0 0 1 25.053 22.13l7.728 8.192a81.028 81.028 0 0 1 22.119 55.626v3.921H766h-.011ZM621.299 76.553a74.939 74.939 0 0 0-32.771-83.466l-63.886-39.615a18.152 18.152 0 0 0-23.297 3.535l-5.938 6.879a18.162 18.162 0 0 0 4.941 23.761l120.939 88.906h.012Z" fill="#CEC825" style="fill:color(display-p3 .8078 .7843 .1451);fill-opacity:1"/><path fill-rule="evenodd" clip-rule="evenodd" d="M0 259.997v3.932a135.51 135.51 0 0 0 36.986 93.03l7.739 8.181a240.437 240.437 0 0 0 32.385 28.635l21.96 16.147c-26.47 58.266-6.232 128.6 49.665 163.285l63.875 39.626a72.637 72.637 0 0 0 93.201-14.187l.793-.907.317.261 3.819-4.589a72.643 72.643 0 0 0 16.238-55.248 72.628 72.628 0 0 0-29.077-49.703l-126.322-92.85a95.326 95.326 0 0 1 103.92-32.373l4.828 1.518 66.288 22.561A112.865 112.865 0 0 0 383 393.344c0-30.209-19.32-57.756-85.699-80.362l-5.416-1.7a149.796 149.796 0 0 0-164.203 52.057l-18.312-13.451a185.902 185.902 0 0 1-25.042-22.152l-7.74-8.193A81.019 81.019 0 0 1 54.47 263.94v-3.943H0Zm144.69 183.454a74.923 74.923 0 0 0 32.77 83.456l63.864 39.626a18.153 18.153 0 0 0 23.297-3.547l5.949-6.878a18.16 18.16 0 0 0-4.94-23.751l-120.94-88.906Z" fill="#262626" style="fill:color(display-p3 .149 .149 .149);fill-opacity:1"/><path fill-rule="evenodd" clip-rule="evenodd" d="M0 259.997v-3.921a135.509 135.509 0 0 1 36.986-93.03l7.739-8.193A240.373 240.373 0 0 1 77.11 126.23l21.96-16.136C72.6 51.817 92.838-18.516 148.735-53.202l63.875-39.626a72.631 72.631 0 0 1 93.201 14.187l.793.907.317-.272 3.819 4.6a72.66 72.66 0 0 1 13.82 25.944 72.659 72.659 0 0 1-6.992 57.149 72.641 72.641 0 0 1-19.667 21.847l-126.322 92.849a95.325 95.325 0 0 0 103.92 32.396l4.828-1.518 66.288-22.572A112.89 112.89 0 0 1 383 126.672c0 40.408-38.243 65.416-91.104 82.039a149.784 149.784 0 0 1-90.337-.055 149.78 149.78 0 0 1-73.877-51.99l-18.312 13.462a185.787 185.787 0 0 0-25.042 22.13l-7.74 8.192a81.02 81.02 0 0 0-22.118 55.626v3.921H0ZM144.69 76.553a74.932 74.932 0 0 1 32.77-83.466l63.864-39.615a18.152 18.152 0 0 1 23.297 3.535l5.949 6.879a18.162 18.162 0 0 1-4.94 23.761L144.69 76.554Z" fill="#0D0D0D" style="fill:color(display-p3 .051 .051 .051);fill-opacity:1"/><path fill-rule="evenodd" clip-rule="evenodd" d="M766 259.997v3.932a135.51 135.51 0 0 1-36.986 93.03l-7.739 8.181a240.47 240.47 0 0 1-32.385 28.635l-21.96 16.147c26.459 58.266 6.232 128.6-49.665 163.285l-63.875 39.626a72.637 72.637 0 0 1-93.201-14.187l-.793-.907-.317.261-3.819-4.589a72.655 72.655 0 0 1-13.826-25.948 72.634 72.634 0 0 1 26.676-79.003l126.311-92.85a95.321 95.321 0 0 0-103.92-32.373l-4.828 1.518-66.288 22.561A112.865 112.865 0 0 1 383 393.344c0-28.589 19.32-57.756 85.699-80.362l5.416-1.7a149.796 149.796 0 0 1 164.203 52.057l18.312-13.451a186.054 186.054 0 0 0 25.053-22.152l7.728-8.193a81.015 81.015 0 0 0 22.119-55.603v-3.943H766ZM621.31 443.451a74.923 74.923 0 0 1-32.77 83.456l-63.875 39.626a18.157 18.157 0 0 1-23.298-3.547l-5.937-6.878a18.16 18.16 0 0 1 4.94-23.751l120.94-88.906Z" fill="#B8B21A" style="fill:color(display-p3 .7216 .698 .102);fill-opacity:1"/><path d="M383 393.707c73.71 0 133.71-59.728 133.71-133.71 0-73.983-60-133.71-133.71-133.71v54.617c43.943 0 79.32 35.558 79.32 79.093 0 43.535-35.377 79.093-79.32 79.093v54.617Z" fill="#B7B23F" style="fill:color(display-p3 .7176 .698 .2471);fill-opacity:1"/><path fill-rule="evenodd" clip-rule="evenodd" d="M383 393.707c-73.711 0-133.71-59.728-133.71-133.71 0-73.983 59.999-133.71 133.71-133.71v54.617c-43.943 0-79.32 35.558-79.32 79.093 0 43.535 35.377 79.093 79.32 79.093v54.617Z" fill="#393939" style="fill:color(display-p3 .2235 .2235 .2235);fill-opacity:1"/></g></svg>